<svg xmlns="http://www.w3.org/2000/svg" viewBox="0 0 512 512">
  <!-- Background -->
  <rect width="512" height="512" rx="110" fill="#1a0808"/>

  <!-- Light rays emanating from siren top -->
  <rect x="249" y="42" width="14" height="52" rx="7" fill="#ffcc00"/>
  <rect x="249" y="42" width="13" height="44" rx="6" fill="#ffcc00" transform="rotate(38 256 175)"/>
  <rect x="249" y="42" width="13" height="44" rx="6" fill="#ffcc00" transform="rotate(-38 256 175)"/>
  <rect x="249" y="42" width="11" height="36" rx="5" fill="#ffcc00" transform="rotate(70 256 175)"/>
  <rect x="249" y="42" width="11" height="36" rx="5" fill="#ffcc00" transform="rotate(-70 256 175)"/>

  <!-- Siren dome -->
  <path d="M256 110 C190 110 148 158 148 215 L148 258 L364 258 L364 215 C364 158 322 110 256 110Z" fill="#ff2222"/>

  <!-- Flash light glow -->
  <circle cx="256" cy="185" r="46" fill="#ff7700" opacity="0.9"/>
  <circle cx="256" cy="185" r="27" fill="#ffee55"/>

  <!-- Siren body -->
  <rect x="148" y="258" width="216" height="58" rx="6" fill="#cc1111"/>

  <!-- Base bar -->
  <rect x="116" y="314" width="280" height="36" rx="10" fill="#991111"/>

  <!-- Hebrew text "עורף" -->
  <text x="256" y="415" font-family="Arial, Helvetica, sans-serif" font-size="60" font-weight="900"
        fill="#ffffff" text-anchor="middle" letter-spacing="2">פיקוד</text>
  <text x="256" y="477" font-family="Arial, Helvetica, sans-serif" font-size="50" font-weight="700"
        fill="#ff8888" text-anchor="middle" letter-spacing="1">העורף</text>
</svg>
